# Blender 5.2.2 LTS
# www.blender.org
mtllib ящик.mtl
o оболочка_ящика
v -0.981087 0.829979 0.936662
v -0.982393 0.981316 0.776088
v -0.992126 -0.989465 -0.778026
v -0.993432 -0.838128 -0.938600
v -1.035592 0.829932 0.937062
v -1.036898 0.981270 0.776487
v -1.046631 -0.989511 -0.777626
v -1.047937 -0.838174 -0.938200
v -0.982195 0.908321 1.038987
v -0.982867 1.090550 1.037353
v -0.998988 0.889466 -1.057152
v -0.999660 1.071696 -1.058786
v -1.036700 0.908124 1.039425
v -1.037372 1.090353 1.037792
v -1.053492 0.889269 -1.056714
v -1.054165 1.071498 -1.058348
v -0.974860 -1.079695 1.056810
v -0.975532 -0.897466 1.055176
v -0.991653 -1.098549 -1.039330
v -0.992325 -0.916320 -1.040963
v -1.029365 -1.079892 1.057248
v -1.030037 -0.897663 1.055614
v -1.046157 -1.098747 -1.038891
v -1.046829 -0.916517 -1.040525
v -1.042467 -1.094666 -0.863913
v -1.043927 -1.096305 -1.046138
v -1.055050 1.070451 -0.883287
v -1.056510 1.068812 -1.065512
v -0.987963 -1.094353 -0.864353
v -0.989423 -1.095992 -1.046577
v -1.000546 1.070764 -0.883727
v -1.002006 1.069125 -1.065951
v -1.027059 -1.077366 1.059443
v -1.028519 -1.079005 0.877219
v -1.039642 1.087751 1.040069
v -1.041101 1.086112 0.857845
v -0.972555 -1.077053 1.059004
v -0.974015 -1.078692 0.876779
v -0.985138 1.088064 1.039630
v -0.986597 1.086425 0.857405
v 1.056042 0.837403 0.926464
v 1.054736 0.988740 0.765890
v 1.045002 -0.982041 -0.788224
v 1.043697 -0.830703 -0.948798
v 1.001537 0.837357 0.926864
v 1.000231 0.988694 0.766290
v 0.990498 -0.982087 -0.787824
v 0.989192 -0.830749 -0.948398
v 1.054934 0.915746 1.028789
v 1.054262 1.097975 1.027155
v 1.038142 0.896891 -1.067350
v 1.037469 1.079120 -1.068984
v 1.000430 0.915548 1.029227
v 0.999757 1.097778 1.027594
v 0.983637 0.896694 -1.066912
v 0.982965 1.078923 -1.068546
v 1.062269 -1.072270 1.046612
v 1.061597 -0.890041 1.044978
v 1.045476 -1.091125 -1.049528
v 1.044804 -0.908895 -1.051161
v 1.007765 -1.072467 1.047050
v 1.007092 -0.890238 1.045416
v 0.990972 -1.091322 -1.049089
v 0.990300 -0.909093 -1.050723
v 0.994662 -1.087242 -0.874111
v 0.993203 -1.088880 -1.056336
v 0.982080 1.077876 -0.893485
v 0.980620 1.076237 -1.075710
v 1.049166 -1.086929 -0.874551
v 1.047707 -1.088568 -1.056775
v 1.036583 1.078189 -0.893925
v 1.035124 1.076550 -1.076149
v 1.010071 -1.069941 1.049245
v 1.008611 -1.071580 0.867021
v 0.997488 1.095176 1.029871
v 0.996028 1.093537 0.847647
v 1.064575 -1.069628 1.048806
v 1.063115 -1.071267 0.866581
v 1.051992 1.095489 1.029432
v 1.050532 1.093850 0.847207
v 0.946861 0.837551 0.987830
v 0.787087 0.989737 0.987208
v -0.777402 -0.972537 1.021753
v -0.937176 -0.820351 1.021131
v 0.947260 0.838192 1.042331
v 0.787486 0.990379 1.041709
v -0.777003 -0.971896 1.076255
v -0.936777 -0.819709 1.075632
v 1.049597 0.915360 0.987955
v 1.048925 1.097589 0.986321
v -1.046613 0.907777 1.004816
v -1.047285 1.090006 1.003182
v 1.050034 0.915850 1.042457
v 1.049361 1.098079 1.040823
v -1.046176 0.908267 1.059319
v -1.046848 1.090496 1.057685
v 1.056931 -1.072656 1.005778
v 1.056259 -0.890427 1.004144
v -1.039278 -1.080239 1.022639
v -1.039950 -0.898010 1.021005
v 1.057368 -1.072166 1.060280
v 1.056696 -0.889937 1.058646
v -1.038842 -1.079749 1.077142
v -1.039514 -0.897519 1.075508
v -0.863844 -1.076638 1.073414
v -1.046075 -1.077298 1.074880
v -0.871796 1.088537 1.058597
v -1.054026 1.087878 1.060063
v -0.864281 -1.077013 1.018910
v -1.046512 -1.077672 1.020376
v -0.872233 1.088162 1.004094
v -1.054464 1.087503 1.005560
v 1.059577 -1.069681 1.057943
v 0.877346 -1.070340 1.059408
v 1.051625 1.095495 1.043126
v 0.869395 1.094836 1.044592
v 1.059140 -1.070055 1.003439
v 0.876909 -1.070714 1.004905
v 1.051188 1.095120 0.988622
v 0.868958 1.094461 0.990088
v 0.930428 0.819099 -1.063459
v 0.770654 0.971286 -1.064081
v -0.793835 -0.990988 -1.029536
v -0.953609 -0.838802 -1.030158
v 0.930827 0.819741 -1.008958
v 0.771053 0.971928 -1.009580
v -0.793436 -0.990347 -0.975035
v -0.953210 -0.838160 -0.975657
v 1.033164 0.896909 -1.063335
v 1.032492 1.079138 -1.064968
v -1.063046 0.889326 -1.046473
v -1.063718 1.071555 -1.048107
v 1.033600 0.897399 -1.008832
v 1.032928 1.079628 -1.010466
v -1.062609 0.889816 -0.991971
v -1.063281 1.072045 -0.993604
v 1.040498 -1.091107 -1.045512
v 1.039826 -0.908878 -1.047145
v -1.055711 -1.098690 -1.028650
v -1.056383 -0.916461 -1.030284
v 1.040935 -1.090617 -0.991009
v 1.040263 -0.908388 -0.992643
v -1.055275 -1.098200 -0.974147
v -1.055947 -0.915970 -0.975781
v -0.880277 -1.095089 -0.977875
v -1.062508 -1.095748 -0.976409
v -0.888229 1.070086 -0.992692
v -1.070459 1.069427 -0.991226
v -0.880714 -1.095464 -1.032379
v -1.062945 -1.096123 -1.030913
v -0.888666 1.069711 -1.047195
v -1.070897 1.069052 -1.045730
v 1.043144 -1.088131 -0.993347
v 0.860913 -1.088791 -0.991881
v 1.035192 1.077044 -1.008163
v 0.852961 1.076385 -1.006697
v 1.042707 -1.088506 -1.047850
v 0.860476 -1.089165 -1.046384
v 1.034755 1.076669 -1.062667
v 0.852525 1.076010 -1.061201
v -0.987017 -0.987547 1.024610
v -0.994396 1.012359 1.006681
v -1.003039 -1.005536 -0.975245
v -1.010417 0.994370 -0.993174
v 1.012905 -0.980313 1.008523
v 1.005526 1.019593 0.990594
v 0.996883 -0.998301 -0.991332
v 0.989505 1.001605 -1.009261
vn 1.0000 0.0008 -0.0073
vn -0.0044 -0.7277 -0.6858
vn -1.0000 -0.0008 0.0073
vn 0.0044 0.7277 0.6858
vn 0.0059 -0.6859 0.7277
vn -0.0059 0.6859 -0.7277
vn 1.0000 0.0036 -0.0080
vn -0.0080 -0.0090 -0.9999
vn -1.0000 -0.0036 0.0080
vn 0.0080 0.0090 0.9999
vn 0.0037 -1.0000 0.0090
vn -0.0037 1.0000 -0.0090
vn -1.0000 -0.0057 0.0081
vn -0.0058 0.9999 -0.0089
vn 1.0000 0.0057 -0.0081
vn 0.0058 -0.9999 0.0089
vn -0.0073 -0.0118 -0.9999
vn -0.6897 -0.7240 0.0136
vn 0.0073 0.0118 0.9999
vn 0.6897 0.7240 -0.0136
vn 0.7241 -0.6897 0.0028
vn -0.7241 0.6897 -0.0028
vn 0.0080 0.0069 0.9999
vn -0.0037 1.0000 -0.0068
vn -0.0080 -0.0069 -0.9999
vn 0.0037 -1.0000 0.0068
vt 0.371951 0.256808
vt 0.371951 0.577834
vt 0.343618 0.577834
vt 0.343618 0.256808
vt 0.230962 0.770446
vt 0.237961 0.770424
vt 0.237961 0.790877
vt 0.230962 0.790899
vt 0.371951 0.577834
vt 0.371951 0.256808
vt 0.400284 0.256808
vt 0.400284 0.577834
vt 0.223964 0.770424
vt 0.230962 0.770446
vt 0.230962 0.790899
vt 0.223964 0.790877
vt 0.770423 0.509697
vt 0.770424 0.278029
vt 0.777422 0.278025
vt 0.777422 0.509693
vt 0.777422 0.509693
vt 0.777422 0.278025
vt 0.784421 0.278029
vt 0.784421 0.509698
vt 0.841217 0.513616
vt 0.841217 0.782788
vt 0.817817 0.782788
vt 0.817817 0.513616
vt 0.027996 0.793824
vt 0.020997 0.793824
vt 0.020997 0.770424
vt 0.027996 0.770424
vt 0.460618 0.847006
vt 0.460618 0.577834
vt 0.484018 0.577834
vt 0.484018 0.847006
vt 0.055991 0.793824
vt 0.048992 0.793824
vt 0.048992 0.770424
vt 0.055991 0.770424
vt 0.944009 0.782788
vt 0.944009 0.513616
vt 0.951008 0.513616
vt 0.951008 0.782788
vt 0.972005 0.782788
vt 0.972005 0.513616
vt 0.979003 0.513616
vt 0.979003 0.782788
vt 0.460618 0.577834
vt 0.437218 0.847006
vt 0.437218 0.577834
vt 0.097984 0.793824
vt 0.090985 0.793824
vt 0.090985 0.770424
vt 0.097984 0.770424
vt 0.841217 0.782788
vt 0.841217 0.513616
vt 0.864617 0.513616
vt 0.864617 0.782788
vt 0.181971 0.793824
vt 0.174972 0.793824
vt 0.174972 0.770424
vt 0.181971 0.770424
vt 0.971412 0.269172
vt 0.971412 0.000000
vt 0.978411 0.000000
vt 0.978411 0.269172
vt 0.986002 0.782788
vt 0.986002 0.513616
vt 0.993001 0.513616
vt 0.993001 0.782788
vt 0.771016 0.791640
vt 0.771016 0.513616
vt 0.794416 0.513616
vt 0.794416 0.791640
vt 0.097984 0.770424
vt 0.104983 0.770424
vt 0.104983 0.793824
vt 0.097984 0.793824
vt 0.700816 0.513616
vt 0.700816 0.791640
vt 0.677416 0.791640
vt 0.677416 0.513616
vt 0.160974 0.770424
vt 0.167973 0.770424
vt 0.167973 0.793824
vt 0.160974 0.793824
vt 0.922420 -0.000000
vt 0.922420 0.278025
vt 0.915421 0.278025
vt 0.915421 0.000000
vt 0.915421 0.000000
vt 0.915421 0.278025
vt 0.908422 0.278025
vt 0.908422 0.000000
vt 0.700816 0.791640
vt 0.700816 0.513616
vt 0.724216 0.513616
vt 0.724216 0.791640
vt 0.041993 0.770424
vt 0.048992 0.770424
vt 0.048992 0.793824
vt 0.041993 0.793824
vt 0.286952 0.534833
vt 0.286952 0.812858
vt 0.263552 0.812858
vt 0.263552 0.534833
vt 0.139977 0.770424
vt 0.146976 0.770424
vt 0.146976 0.793824
vt 0.139977 0.793824
vt 0.909015 0.513616
vt 0.909015 0.791641
vt 0.902016 0.791641
vt 0.902016 0.513616
vt 0.923012 0.513616
vt 0.923012 0.791641
vt 0.916014 0.791641
vt 0.916014 0.513616
vt 0.485283 0.256808
vt 0.485283 0.577834
vt 0.456950 0.577834
vt 0.456950 0.256808
vt 0.244960 0.770446
vt 0.251959 0.770424
vt 0.251959 0.790877
vt 0.244960 0.790899
vt 0.428617 0.577834
vt 0.428617 0.256808
vt 0.456950 0.256808
vt 0.456950 0.577834
vt 0.237961 0.770424
vt 0.244960 0.770446
vt 0.244960 0.790899
vt 0.237961 0.790877
vt 0.791420 0.509697
vt 0.791420 0.278029
vt 0.798419 0.278025
vt 0.798419 0.509693
vt 0.784421 0.509693
vt 0.784421 0.278025
vt 0.791420 0.278029
vt 0.791420 0.509698
vt 0.507418 0.577834
vt 0.507418 0.847006
vt 0.484018 0.847006
vt 0.484018 0.577834
vt 0.020997 0.793824
vt 0.013998 0.793824
vt 0.013998 0.770424
vt 0.020997 0.770424
vt 0.817223 0.269172
vt 0.817223 0.000000
vt 0.840624 -0.000000
vt 0.840624 0.269172
vt 0.069989 0.793824
vt 0.062990 0.793824
vt 0.062990 0.770424
vt 0.069989 0.770424
vt 0.943417 0.269172
vt 0.943417 0.000000
vt 0.950415 0.000000
vt 0.950415 0.269172
vt 0.992409 0.269172
vt 0.992409 0.000000
vt 0.999408 0.000000
vt 0.999408 0.269172
vt 0.367018 0.577834
vt 0.367018 0.847006
vt 0.343618 0.847006
vt 0.343618 0.577834
vt 0.223963 0.793824
vt 0.216965 0.793824
vt 0.216965 0.770424
vt 0.223963 0.770424
vt 0.367018 0.847006
vt 0.367018 0.577834
vt 0.390418 0.577834
vt 0.390418 0.847006
vt 0.041993 0.793824
vt 0.034994 0.793824
vt 0.034994 0.770424
vt 0.041993 0.770424
vt 0.978411 0.269172
vt 0.978411 0.000000
vt 0.985410 -0.000000
vt 0.985410 0.269172
vt 0.993001 0.782788
vt 0.993001 0.513616
vt 1.000000 0.513616
vt 1.000000 0.782788
vt 0.263552 0.534833
vt 0.263552 0.256808
vt 0.286952 0.256808
vt 0.195968 0.770424
vt 0.202967 0.770424
vt 0.202967 0.793824
vt 0.195968 0.793824
vt 0.607216 0.513616
vt 0.607216 0.791640
vt 0.583816 0.791640
vt 0.583816 0.513616
vt 0.069989 0.770424
vt 0.076988 0.770424
vt 0.076988 0.793824
vt 0.069989 0.793824
vt 0.943417 0.000000
vt 0.943417 0.278025
vt 0.936418 0.278025
vt 0.936418 0.000000
vt 0.916014 0.513616
vt 0.916014 0.791641
vt 0.909015 0.791641
vt 0.607216 0.513616
vt 0.630616 0.513616
vt 0.630616 0.791640
vt 0.202967 0.770424
vt 0.209966 0.770424
vt 0.209966 0.793824
vt 0.202967 0.793824
vt 0.654016 0.513616
vt 0.654016 0.791641
vt 0.630616 0.791641
vt 0.630616 0.513616
vt 0.006999 0.770424
vt 0.013998 0.770424
vt 0.013998 0.793824
vt 0.006999 0.793824
vt 0.908422 0.000000
vt 0.908422 0.278025
vt 0.901423 0.278025
vt 0.901424 -0.000000
vt 0.895017 0.791641
vt 0.895017 0.513616
vt 0.343618 0.256808
vt 0.343618 0.577834
vt 0.315285 0.577834
vt 0.315285 0.256808
vt 0.251959 0.770446
vt 0.258957 0.770424
vt 0.258957 0.790857
vt 0.251959 0.790879
vt 0.400284 0.577834
vt 0.400284 0.256808
vt 0.428617 0.256808
vt 0.428617 0.577834
vt 0.794417 0.782788
vt 0.801415 0.782810
vt 0.801415 0.803244
vt 0.794417 0.803221
vt 0.805418 0.509629
vt 0.805418 0.278029
vt 0.812417 0.278025
vt 0.812417 0.509625
vt 0.819416 0.509625
vt 0.819416 0.278025
vt 0.826414 0.278029
vt 0.826414 0.509629
vt 0.338685 0.577834
vt 0.338685 0.847006
vt 0.315285 0.847006
vt 0.062990 0.793824
vt 0.055991 0.793824
vt 0.055991 0.770424
vt 0.062990 0.770424
vt 0.864617 0.782788
vt 0.864617 0.513616
vt 0.888017 0.513616
vt 0.888017 0.782788
vt 0.139977 0.793824
vt 0.132979 0.793824
vt 0.132979 0.770424
vt 0.139977 0.770424
vt 0.950415 0.269172
vt 0.950416 -0.000000
vt 0.957414 0.000000
vt 0.957414 0.269172
vt 0.958007 0.782788
vt 0.958007 0.513616
vt 0.965006 0.513616
vt 0.965006 0.782788
vt 0.437218 0.577834
vt 0.437218 0.847006
vt 0.413818 0.847006
vt 0.413818 0.577834
vt 0.006999 0.793824
vt 0.000000 0.793824
vt 0.000000 0.770424
vt 0.006999 0.770424
vt 0.286952 0.847006
vt 0.286952 0.577834
vt 0.310352 0.577834
vt 0.310352 0.847006
vt 0.153975 0.793824
vt 0.146976 0.793824
vt 0.146976 0.770424
vt 0.153975 0.770424
vt 0.979003 0.782788
vt 0.979003 0.513616
vt 0.986002 0.513616
vt 0.986002 0.782788
vt 0.964413 0.269172
vt 0.964413 0.000000
vt 0.971412 0.000000
vt 0.971412 0.269172
vt 0.747617 0.791641
vt 0.747617 0.513616
vt 0.771017 0.513616
vt 0.771017 0.791641
vt 0.181970 0.770424
vt 0.188969 0.770424
vt 0.188969 0.793824
vt 0.181970 0.793824
vt 0.560416 0.513616
vt 0.560416 0.791641
vt 0.537016 0.791641
vt 0.537016 0.513616
vt 0.076988 0.770424
vt 0.083987 0.770424
vt 0.083987 0.793824
vt 0.076988 0.793824
vt 0.929419 0.000000
vt 0.929419 0.278025
vt 0.922420 0.278025
vt 0.922420 0.000000
vt 0.894424 -0.000000
vt 0.894423 0.278025
vt 0.887424 0.278025
vt 0.887425 -0.000000
vt 0.513616 0.791641
vt 0.513616 0.513616
vt 0.537016 0.513616
vt 0.537016 0.791641
vt 0.118981 0.770424
vt 0.125980 0.770424
vt 0.125980 0.793824
vt 0.118981 0.793824
vt 0.793824 -0.000000
vt 0.793824 0.278025
vt 0.770424 0.278025
vt 0.770424 -0.000000
vt 0.125980 0.770424
vt 0.132979 0.770424
vt 0.132979 0.793824
vt 0.125980 0.793824
vt 0.930011 0.513616
vt 0.930011 0.791641
vt 0.923013 0.791641
vt 0.923013 0.513616
vt 0.901423 0.000000
vt 0.901423 0.278025
vt 0.894424 0.278025
vt 0.894424 0.000000
vt 0.513616 0.256808
vt 0.513616 0.577834
vt 0.485283 0.577834
vt 0.485283 0.256808
vt 0.251959 0.790902
vt 0.258957 0.790879
vt 0.258957 0.811313
vt 0.251959 0.811335
vt 0.286952 0.577834
vt 0.286952 0.256808
vt 0.315285 0.256808
vt 0.315285 0.577834
vt 0.801415 0.782788
vt 0.808414 0.782810
vt 0.808414 0.803244
vt 0.801415 0.803222
vt 0.812417 0.509629
vt 0.812417 0.278029
vt 0.819415 0.278025
vt 0.798419 0.509625
vt 0.798419 0.278025
vt 0.805418 0.278029
vt 0.805418 0.509629
vt 0.413818 0.577834
vt 0.413818 0.847006
vt 0.390418 0.847006
vt 0.390418 0.577834
vt 0.090985 0.793824
vt 0.083987 0.770424
vt 0.090985 0.770424
vt 0.794417 0.782788
vt 0.794417 0.513616
vt 0.817817 0.513616
vt 0.817817 0.782788
vt 0.174972 0.793824
vt 0.167973 0.793824
vt 0.174972 0.770424
vt 0.957414 0.269172
vt 0.957414 -0.000000
vt 0.964413 0.000000
vt 0.964413 0.269172
vt 0.985410 0.269172
vt 0.985410 0.000000
vt 0.992409 0.000000
vt 0.992409 0.269172
vt 0.887424 0.000000
vt 0.887424 0.269172
vt 0.864024 0.269172
vt 0.864024 0.000000
vt 0.111982 0.793824
vt 0.104983 0.793824
vt 0.104983 0.770424
vt 0.111982 0.770424
vt 0.840624 0.269172
vt 0.840624 0.000000
vt 0.864024 -0.000000
vt 0.864024 0.269172
vt 0.118981 0.793824
vt 0.111982 0.793824
vt 0.111982 0.770424
vt 0.118981 0.770424
vt 0.965006 0.782788
vt 0.972005 0.513616
vt 0.972005 0.782788
vt 0.951008 0.782788
vt 0.951008 0.513616
vt 0.958007 0.513616
vt 0.793824 0.278025
vt 0.793824 0.000000
vt 0.817224 0.000000
vt 0.817224 0.278025
vt 0.209966 0.770424
vt 0.216965 0.770424
vt 0.216965 0.793824
vt 0.209966 0.793824
vt 0.677416 0.513616
vt 0.677416 0.791641
vt 0.654016 0.791641
vt 0.654016 0.513616
vt 0.188969 0.770424
vt 0.195968 0.770424
vt 0.195968 0.793824
vt 0.188969 0.793824
vt 0.944009 0.513616
vt 0.944009 0.791641
vt 0.937010 0.791641
vt 0.937010 0.513616
vt 0.936418 0.000000
vt 0.936418 0.278025
vt 0.929419 0.278025
vt 0.929419 0.000000
vt 0.724216 0.791641
vt 0.724216 0.513616
vt 0.747617 0.513616
vt 0.747617 0.791641
vt 0.027996 0.770424
vt 0.034994 0.770424
vt 0.034994 0.793824
vt 0.027996 0.793824
vt 0.583816 0.513616
vt 0.583816 0.791641
vt 0.560416 0.791641
vt 0.560416 0.513616
vt 0.153975 0.770424
vt 0.160974 0.770424
vt 0.160974 0.793824
vt 0.153975 0.793824
vt 0.937010 0.513616
vt 0.937010 0.791641
vt 0.930011 0.791641
vt 0.930011 0.513616
vt 0.895017 0.513616
vt 0.895016 0.791641
vt 0.888017 0.791641
vt 0.888018 0.513616
vt 0.513616 0.000000
vt 0.513616 0.256808
vt 0.256808 0.256808
vt 0.256808 0.000000
vt 0.000000 0.513616
vt 0.000000 0.256808
vt 0.256808 0.256808
vt 0.256808 0.513616
vt 0.513616 -0.000000
vt 0.770423 -0.000000
vt 0.770423 0.256808
vt 0.256808 0.770424
vt 0.000000 0.770424
vt -0.000000 0.513616
vt 0.256808 0.513616
vt 0.000000 0.256808
vt 0.000000 0.000000
vt 0.256808 0.000000
vt 0.513616 0.256808
vt 0.770424 0.256808
vt 0.770424 0.513616
vt 0.513616 0.513616
s 0
usemtl Материал.004
f 1/1/1 3/2/1 4/3/1 2/4/1
f 3/5/2 7/6/2 8/7/2 4/8/2
f 7/9/3 5/10/3 6/11/3 8/12/3
f 5/13/4 1/14/4 2/15/4 6/16/4
f 3/17/5 1/18/5 5/19/5 7/20/5
f 8/21/6 6/22/6 2/23/6 4/24/6
f 9/25/7 11/26/7 12/27/7 10/28/7
f 11/29/8 15/30/8 16/31/8 12/32/8
f 15/33/9 13/34/9 14/35/9 16/36/9
f 13/37/10 9/38/10 10/39/10 14/40/10
f 11/41/11 9/42/11 13/43/11 15/44/11
f 16/45/12 14/46/12 10/47/12 12/48/12
f 17/49/7 19/33/7 20/50/7 18/51/7
f 19/52/8 23/53/8 24/54/8 20/55/8
f 23/56/9 21/57/9 22/58/9 24/59/9
f 21/60/10 17/61/10 18/62/10 22/63/10
f 19/64/11 17/65/11 21/66/11 23/67/11
f 24/68/12 22/69/12 18/70/12 20/71/12
f 25/72/13 27/73/13 28/74/13 26/75/13
f 27/76/14 31/77/14 32/78/14 28/79/14
f 31/80/15 29/81/15 30/82/15 32/83/15
f 29/84/16 25/85/16 26/86/16 30/87/16
f 27/88/10 25/89/10 29/90/10 31/91/10
f 32/92/8 30/93/8 26/94/8 28/95/8
f 33/96/13 35/97/13 36/98/13 34/99/13
f 35/100/14 39/101/14 40/102/14 36/103/14
f 39/104/15 37/105/15 38/106/15 40/107/15
f 37/108/16 33/109/16 34/110/16 38/111/16
f 35/112/10 33/113/10 37/114/10 39/115/10
f 40/116/8 38/117/8 34/118/8 36/119/8
f 41/120/1 43/121/1 44/122/1 42/123/1
f 43/124/2 47/125/2 48/126/2 44/127/2
f 47/128/3 45/129/3 46/130/3 48/131/3
f 45/132/4 41/133/4 42/134/4 46/135/4
f 43/136/5 41/137/5 45/138/5 47/139/5
f 48/140/6 46/141/6 42/142/6 44/143/6
f 49/144/7 51/145/7 52/146/7 50/147/7
f 51/148/8 55/149/8 56/150/8 52/151/8
f 55/152/9 53/153/9 54/154/9 56/155/9
f 53/156/10 49/157/10 50/158/10 54/159/10
f 51/160/11 49/161/11 53/162/11 55/163/11
f 56/164/12 54/165/12 50/166/12 52/167/12
f 57/168/7 59/169/7 60/170/7 58/171/7
f 59/172/8 63/173/8 64/174/8 60/175/8
f 63/176/9 61/177/9 62/178/9 64/179/9
f 61/180/10 57/181/10 58/182/10 62/183/10
f 59/184/11 57/185/11 61/186/11 63/187/11
f 64/188/12 62/189/12 58/190/12 60/191/12
f 65/192/13 67/193/13 68/194/13 66/104/13
f 67/195/14 71/196/14 72/197/14 68/198/14
f 71/199/15 69/200/15 70/201/15 72/202/15
f 69/203/16 65/204/16 66/205/16 70/206/16
f 67/207/10 65/208/10 69/209/10 71/210/10
f 72/211/8 70/212/8 66/213/8 68/112/8
f 73/200/13 75/214/13 76/215/13 74/216/13
f 75/217/14 79/218/14 80/219/14 76/220/14
f 79/221/15 77/222/15 78/223/15 80/224/15
f 77/225/16 73/226/16 74/227/16 78/228/16
f 75/229/10 73/230/10 77/231/10 79/232/10
f 80/115/8 78/114/8 74/233/8 76/234/8
f 81/235/17 83/236/17 84/237/17 82/238/17
f 83/239/18 87/240/18 88/241/18 84/242/18
f 87/243/19 85/244/19 86/245/19 88/246/19
f 85/247/20 81/248/20 82/249/20 86/250/20
f 83/251/21 81/252/21 85/253/21 87/254/21
f 88/255/22 86/256/22 82/257/22 84/258/22
f 89/259/8 91/260/8 92/261/8 90/237/8
f 91/262/9 95/263/9 96/264/9 92/265/9
f 95/266/10 93/267/10 94/268/10 96/269/10
f 93/270/7 89/271/7 90/272/7 94/273/7
f 91/274/11 89/275/11 93/276/11 95/277/11
f 96/278/12 94/279/12 90/280/12 92/281/12
f 97/282/8 99/283/8 100/284/8 98/285/8
f 99/286/9 103/287/9 104/288/9 100/289/9
f 103/290/10 101/291/10 102/292/10 104/293/10
f 101/294/7 97/295/7 98/296/7 102/297/7
f 99/298/11 97/299/11 101/300/11 103/301/11
f 104/302/12 102/303/12 98/304/12 100/305/12
f 105/306/23 107/307/23 108/308/23 106/309/23
f 107/310/24 111/311/24 112/312/24 108/313/24
f 111/314/25 109/315/25 110/316/25 112/317/25
f 109/318/26 105/319/26 106/320/26 110/321/26
f 107/322/7 105/323/7 109/324/7 111/325/7
f 112/326/9 110/327/9 106/328/9 108/329/9
f 113/330/23 115/331/23 116/332/23 114/333/23
f 115/334/24 119/335/24 120/336/24 116/337/24
f 119/338/25 117/339/25 118/340/25 120/341/25
f 117/342/26 113/343/26 114/344/26 118/345/26
f 115/346/7 113/347/7 117/348/7 119/349/7
f 120/350/9 118/351/9 114/352/9 116/353/9
f 121/354/17 123/355/17 124/356/17 122/357/17
f 123/358/18 127/359/18 128/360/18 124/361/18
f 127/362/19 125/363/19 126/364/19 128/365/19
f 125/366/20 121/367/20 122/368/20 126/369/20
f 123/370/21 121/371/21 125/372/21 127/255/21
f 128/373/22 126/374/22 122/375/22 124/376/22
f 129/377/8 131/378/8 132/379/8 130/380/8
f 131/381/9 135/320/9 136/382/9 132/383/9
f 135/384/10 133/385/10 134/386/10 136/387/10
f 133/388/7 129/389/7 130/85/7 134/390/7
f 131/391/11 129/392/11 133/393/11 135/394/11
f 136/395/12 134/396/12 130/397/12 132/398/12
f 137/399/8 139/400/8 140/401/8 138/402/8
f 139/403/9 143/404/9 144/405/9 140/406/9
f 143/407/10 141/408/10 142/409/10 144/410/10
f 141/411/7 137/412/7 138/413/7 142/414/7
f 139/415/11 137/280/11 141/416/11 143/417/11
f 144/418/12 142/419/12 138/420/12 140/278/12
f 145/421/23 147/422/23 148/423/23 146/424/23
f 147/425/24 151/426/24 152/427/24 148/428/24
f 151/429/25 149/430/25 150/431/25 152/432/25
f 149/433/26 145/434/26 146/435/26 150/436/26
f 147/437/7 145/438/7 149/439/7 151/440/7
f 152/441/9 150/442/9 146/443/9 148/444/9
f 153/445/23 155/446/23 156/447/23 154/448/23
f 155/449/24 159/450/24 160/451/24 156/452/24
f 159/453/25 157/454/25 158/455/25 160/456/25
f 157/457/26 153/458/26 154/459/26 158/460/26
f 155/461/7 153/462/7 157/463/7 159/464/7
f 160/465/9 158/466/9 154/467/9 156/468/9
usemtl Материал.003
f 161/469/7 163/470/7 164/471/7 162/472/7
f 163/473/10 167/474/10 168/475/10 164/476/10
f 167/470/9 165/477/9 166/478/9 168/479/9
f 165/480/8 161/481/8 162/482/8 166/483/8
f 163/484/12 161/485/12 165/486/12 167/471/12
f 168/487/11 166/488/11 162/489/11 164/490/11
